<svg id="book" xmlns="http://www.w3.org/2000/svg" width="25.687" height="25.687" viewBox="0 0 25.687 25.687">
  <path id="Caminho_197" data-name="Caminho 197" d="M12.843,0H7.278A.428.428,0,0,0,6.85.428v3H.428A.428.428,0,0,0,0,3.853V25.259a.428.428,0,0,0,.428.428H12.843a.428.428,0,0,0,.428-.428V.428A.428.428,0,0,0,12.843,0Zm-.428,22.262H7.706v-.856h4.709ZM.856,6.422H6.85V19.265H.856ZM12.415,4.709H7.706V3.425h4.709ZM.856,20.121H6.85v1.284H.856Zm6.85.428V5.565h4.709V20.549ZM12.415.856V2.569H7.706V.856ZM6.85,4.281V5.565H.856V4.281ZM.856,22.262H6.85V24.83H.856Zm6.85,2.569V23.118h4.709V24.83Zm0,0" fill="#ddd"/>
  <path id="Caminho_198" data-name="Caminho 198" d="M260.4,84.014l-5.137-19.693a.428.428,0,0,0-.525-.306l-6.422,1.712a.428.428,0,0,0-.3.521l5.137,19.693a.427.427,0,0,0,.525.3l6.422-1.712A.428.428,0,0,0,260.4,84.014ZM249.63,69.06l5.595-1.491.2.771-5.594,1.494Zm6.012.11,2.483,9.524-5.592,1.492-2.483-9.525Zm2.7,10.353.438,1.68-5.594,1.491-.437-1.679Zm-3.8-14.57.466,1.787-5.595,1.491-.466-1.786Zm-.673,20.357-.466-1.787L259,82.031l.466,1.786Zm0,0" transform="translate(-234.726 -60.576)" fill="#ddd"/>
  <path id="Caminho_199" data-name="Caminho 199" d="M35.853,144H32.428a.428.428,0,0,0-.428.428v3.425a.428.428,0,0,0,.428.428h3.425a.428.428,0,0,0,.428-.428v-3.425A.428.428,0,0,0,35.853,144Zm-.428,3.425H32.856v-2.569h2.569Zm0,0" transform="translate(-30.288 -136.294)" fill="#ddd"/>
</svg>
