<svg id="gaming" xmlns="http://www.w3.org/2000/svg" width="165.374" height="133.72" viewBox="0 0 165.374 133.72">
  <path id="Caminho_245" data-name="Caminho 245" d="M138.155,142.458v-4.6h2.02c3.6,0,5.582-1.873,5.582-5.273v-.11c0-3.372-1.9-5.23-5.362-5.23h-4.561a1.306,1.306,0,0,0-1.44,1.2v14.014c0,.838.975,1.219,1.88,1.219S138.155,143.3,138.155,142.458ZM142,132.85c0,1.355-.613,2.042-1.822,2.042h-2.02v-4.326h2.02c1.209,0,1.822.687,1.822,2.042Z" transform="translate(-90.985 -101.973)" fill="#ddd"/>
  <path id="Caminho_246" data-name="Caminho 246" d="M196.861,132.122c0-3.236-1.878-4.877-5.582-4.877h-4.561a1.182,1.182,0,0,0-1.219,1.2v14.014c0,.837.975,1.219,1.88,1.219s1.88-.382,1.88-1.219v-5.149h1.194l2.974,5.775a1.337,1.337,0,0,0,1.245.726,2.375,2.375,0,0,0,2.321-1.946.883.883,0,0,0-.13-.475l-2.6-4.711C195.94,135.95,196.861,134.341,196.861,132.122Zm-3.761.33c0,1.323-.545,1.888-1.822,1.888h-2.02v-3.775h2.02C192.555,130.565,193.1,131.129,193.1,132.453Z" transform="translate(-125.583 -101.972)" fill="#ddd"/>
  <path id="Caminho_247" data-name="Caminho 247" d="M247.129,130.566c.7,0,1.2-.692,1.2-1.682,0-.789-.375-1.638-1.2-1.638h-7.845c-.8,0-1.66.382-1.66,1.219v13.992c0,.838.86,1.219,1.66,1.219h7.845c.822,0,1.2-.849,1.2-1.638,0-.99-.492-1.682-1.2-1.682h-5.744v-3.423h3.144a1.314,1.314,0,0,0,1.2-1.462c0-.748-.411-1.505-1.2-1.505h-3.144v-3.4Z" transform="translate(-160.873 -101.973)" fill="#ddd"/>
  <path id="Caminho_248" data-name="Caminho 248" d="M289.7,140.212a3.7,3.7,0,0,1-2.424-.986,2.259,2.259,0,0,0-1.322-.644c-.963,0-1.66,1.2-1.66,2.013,0,1.612,2.557,3.026,5.472,3.026,3.5,0,5.671-1.936,5.671-5.053,0-3.512-2.75-4.725-4.758-5.609-1.245-.548-2.227-.982-2.227-1.728,0-.561.537-1.161,2.042-1.161a3.975,3.975,0,0,1,2.063.526,2.022,2.022,0,0,0,.956.311c1.08,0,1.528-1.282,1.528-1.968,0-2-3.787-2.1-4.546-2.1-2.677,0-5.8,1.237-5.8,4.723,0,3.1,2.459,4.245,4.435,5.163,1.368.636,2.551,1.185,2.551,2.2C291.674,139.873,290.609,140.212,289.7,140.212Z" transform="translate(-192.467 -101.696)" fill="#ddd"/>
  <path id="Caminho_249" data-name="Caminho 249" d="M338.345,140.212a3.7,3.7,0,0,1-2.424-.986,2.259,2.259,0,0,0-1.321-.644c-.963,0-1.66,1.2-1.66,2.013,0,1.612,2.557,3.026,5.472,3.026,3.5,0,5.67-1.936,5.67-5.053,0-3.512-2.75-4.725-4.758-5.609-1.245-.548-2.227-.982-2.227-1.728,0-.561.536-1.161,2.042-1.161a3.974,3.974,0,0,1,2.063.526,2.022,2.022,0,0,0,.956.311c1.08,0,1.528-1.282,1.528-1.968,0-2-3.787-2.1-4.546-2.1-2.677,0-5.8,1.237-5.8,4.723,0,3.1,2.459,4.245,4.434,5.163,1.369.636,2.551,1.185,2.551,2.2C340.321,139.873,339.257,140.212,338.345,140.212Z" transform="translate(-225.401 -101.696)" fill="#ddd"/>
  <path id="Caminho_250" data-name="Caminho 250" d="M137.413,209.125a3.7,3.7,0,0,1-2.424-.987,2.261,2.261,0,0,0-1.322-.644c-.963,0-1.66,1.2-1.66,2.012,0,1.612,2.557,3.026,5.472,3.026,3.5,0,5.67-1.936,5.67-5.053,0-3.512-2.75-4.724-4.758-5.61-1.244-.548-2.227-.982-2.227-1.728,0-.561.537-1.161,2.042-1.161a3.975,3.975,0,0,1,2.063.526,2.024,2.024,0,0,0,.956.311c1.08,0,1.528-1.282,1.528-1.968,0-2-3.788-2.1-4.547-2.1-2.677,0-5.8,1.237-5.8,4.723,0,3.1,2.459,4.245,4.434,5.163,1.369.636,2.551,1.185,2.551,2.2C139.389,208.786,138.325,209.125,137.413,209.125Z" transform="translate(-89.369 -148.35)" fill="#ddd"/>
  <path id="Caminho_251" data-name="Caminho 251" d="M179.9,197.841c0,1.016.492,1.726,1.2,1.726h2.88v11.8c0,.838.975,1.219,1.88,1.219s1.88-.381,1.88-1.219v-11.8h2.879c.705,0,1.2-.71,1.2-1.726,0-.837-.37-1.682-1.2-1.682H181.1C180.273,196.159,179.9,197,179.9,197.841Z" transform="translate(-121.795 -148.627)" fill="#ddd"/>
  <path id="Caminho_252" data-name="Caminho 252" d="M224.642,210.46a1.24,1.24,0,0,0-.049.282c0,.96,1.4,1.572,2.365,1.572.879,0,1.181-.411,1.28-.758l.717-2.635h4.4l.718,2.637c.1.345.4.756,1.279.756.964,0,2.365-.612,2.365-1.572a1.263,1.263,0,0,0-.051-.29l-4.121-13.443a2.92,2.92,0,0,0-4.8,0Zm5.106-4.507,1.4-5.13,1.4,5.13Z" transform="translate(-152.051 -148.35)" fill="#ddd"/>
  <path id="Caminho_253" data-name="Caminho 253" d="M280.472,197.355V211.37c0,.838.975,1.219,1.88,1.219s1.88-.381,1.88-1.219v-5.149h1.194L288.4,212a1.337,1.337,0,0,0,1.245.725,2.375,2.375,0,0,0,2.321-1.946.883.883,0,0,0-.13-.475l-2.6-4.711c1.678-.726,2.6-2.335,2.6-4.554,0-3.236-1.878-4.877-5.582-4.877h-4.561A1.182,1.182,0,0,0,280.472,197.355Zm5.78,2.123c1.277,0,1.822.565,1.822,1.888s-.545,1.888-1.822,1.888h-2.02v-3.776Z" transform="translate(-189.881 -148.627)" fill="#ddd"/>
  <path id="Caminho_254" data-name="Caminho 254" d="M328.915,197.841c0,1.016.492,1.726,1.2,1.726h2.879v11.8c0,.838.975,1.219,1.88,1.219s1.88-.381,1.88-1.219v-11.8h2.879c.7,0,1.2-.71,1.2-1.726,0-.837-.37-1.682-1.2-1.682h-9.519C329.285,196.159,328.915,197,328.915,197.841Z" transform="translate(-222.677 -148.627)" fill="#ddd"/>
  <path id="Caminho_255" data-name="Caminho 255" d="M69.873,305.795v10.664A5.55,5.55,0,0,0,75.417,322H184.565a5.55,5.55,0,0,0,5.544-5.544V305.795a5.55,5.55,0,0,0-5.544-5.544H75.417a5.55,5.55,0,0,0-5.544,5.544Zm115.391,0v10.664a.7.7,0,0,1-.7.7H75.417a.7.7,0,0,1-.7-.7V305.795a.7.7,0,0,1,.7-.7H184.566A.7.7,0,0,1,185.264,305.795Z" transform="translate(-47.304 -219.098)" fill="#ddd"/>
  <path id="Caminho_256" data-name="Caminho 256" d="M87.628,177.875H7.757a2.915,2.915,0,0,1-2.912-2.912V56.757a2.915,2.915,0,0,1,2.912-2.912H31.851a2.422,2.422,0,1,0,0-4.845H7.757A7.766,7.766,0,0,0,0,56.757V174.963a7.766,7.766,0,0,0,7.757,7.757H87.628a2.422,2.422,0,1,0,0-4.845Z" transform="translate(0 -49)" fill="#ddd"/>
  <path id="Caminho_257" data-name="Caminho 257" d="M239.609,49H123.534a2.422,2.422,0,0,0,0,4.845H239.609a2.915,2.915,0,0,1,2.912,2.912V174.963a2.915,2.915,0,0,1-2.912,2.912h-60.3a2.422,2.422,0,0,0,0,4.845h60.3a7.765,7.765,0,0,0,7.757-7.757V56.757A7.766,7.766,0,0,0,239.609,49Z" transform="translate(-81.993 -49)" fill="#ddd"/>
</svg>
