<svg id="cup" xmlns="http://www.w3.org/2000/svg" width="24.71" height="24.707" viewBox="0 0 24.71 24.707">
  <g id="Grupo_7" data-name="Grupo 7" transform="translate(0 0)">
    <g id="Grupo_6" data-name="Grupo 6">
      <path id="Caminho_206" data-name="Caminho 206" d="M24.708,4.741c-.025-2.1-1.1-3.252-3.022-3.252a6.787,6.787,0,0,0-1.932.318C19.8.949,19.8.42,19.8.394V.027H4.907V.394c0,.013,0,.55.049,1.413a6.787,6.787,0,0,0-1.933-.318C1.1,1.489.025,2.644,0,4.741A10.074,10.074,0,0,0,1.4,10.2a8.831,8.831,0,0,0,2.967,2.957,6.939,6.939,0,0,0,3.572.977,6.151,6.151,0,0,0,.628-.031l.038,0a5.654,5.654,0,0,0,1.388,1.109,1.445,1.445,0,0,1,.706.964,1.209,1.209,0,0,0,.033,2.319v1.54H8.745v1.607H6.786v3.1H17.923v-3.1H15.964V20.03H13.978V18.49a1.209,1.209,0,0,0,.033-2.319,1.445,1.445,0,0,1,.706-.964A5.678,5.678,0,0,0,16.106,14.1a6.077,6.077,0,0,0,.664.035h0a6.939,6.939,0,0,0,3.571-.977A8.832,8.832,0,0,0,23.31,10.2,10.072,10.072,0,0,0,24.708,4.741ZM19.062.761c0,.134-.008.3-.017.5H5.665c-.008-.2-.014-.366-.017-.5H19.062Zm.5,3.369A5.781,5.781,0,0,1,21.28,3.8a1.321,1.321,0,0,1,1.036.351,1.677,1.677,0,0,1,.224,1.338,7.759,7.759,0,0,1-3.154,5.678,3.983,3.983,0,0,1-1.743.586A25.091,25.091,0,0,0,19.561,4.13ZM5.525,6.686a21.07,21.07,0,0,0,1.481,4.941l.058.124a3.984,3.984,0,0,1-1.742-.586A7.759,7.759,0,0,1,2.169,5.488a1.677,1.677,0,0,1,.224-1.338A1.321,1.321,0,0,1,3.429,3.8a5.784,5.784,0,0,1,1.72.333C5.238,4.925,5.359,5.795,5.525,6.686ZM7.938,13.4a6.205,6.205,0,0,1-3.193-.872A8.563,8.563,0,0,1,.734,4.749c.02-1.7.768-2.527,2.288-2.527A6.357,6.357,0,0,1,5,2.6c.018.246.039.493.061.739a6.027,6.027,0,0,0-1.638-.272,2,2,0,0,0-1.589.6,2.344,2.344,0,0,0-.4,1.921A10.335,10.335,0,0,0,2.669,9.366a6.949,6.949,0,0,0,2.257,2.417,4.88,4.88,0,0,0,2.533.728l.007.012q.056.1.114.194l.036.059c.037.06.073.119.111.178l.042.065.076.116.075.11.074.105.035.049Zm9.252,8.972V24H7.52V22.371h9.67Zm-3.211-1.607H15.23v.873H9.479v-.873h4.5Zm-2.514-.734v-1.5h1.78v1.5Zm2.664-2.7a.476.476,0,0,1-.475.475h-2.6a.475.475,0,0,1,0-.95h2.6A.476.476,0,0,1,14.128,17.326Zm1.836-4.2-.012.016c-.036.047-.072.092-.109.137l-.027.033q-.06.073-.121.143l-.006.007a5.05,5.05,0,0,1-1.328,1.1,2.182,2.182,0,0,0-1.086,1.551H11.434a2.182,2.182,0,0,0-1.086-1.551,4.971,4.971,0,0,1-1.238-1l-.09-.1A8.206,8.206,0,0,1,8,11.969l-.1-.177C6.324,8.743,5.847,4.336,5.7,2H19.009c-.006.1-.013.207-.02.316v.015q-.012.178-.026.356v.01c-.029.376-.064.754-.1,1.128l-.024.226a23.4,23.4,0,0,1-2.017,7.729l-.1.193A8.777,8.777,0,0,1,15.964,13.131Zm4-.6a6.2,6.2,0,0,1-3.193.872H16.68v0q.071-.1.141-.2l.017-.025q.059-.086.116-.175l.029-.045c.042-.066.084-.133.125-.2l.019-.032q.05-.084.1-.169l.023-.039a4.88,4.88,0,0,0,2.533-.728A6.951,6.951,0,0,0,22.04,9.366a10.337,10.337,0,0,0,1.227-3.778,2.345,2.345,0,0,0-.4-1.921,2,2,0,0,0-1.589-.6,6.025,6.025,0,0,0-1.638.272c.023-.251.043-.491.06-.72V2.6a6.357,6.357,0,0,1,1.982-.374c1.52,0,2.268.827,2.288,2.527A8.563,8.563,0,0,1,19.964,12.528Z" transform="translate(0 -0.027)" fill="#ddd"/>
    </g>
  </g>
  <g id="Grupo_9" data-name="Grupo 9" transform="translate(8.67 11.882)">
    <g id="Grupo_8" data-name="Grupo 8">
      <path id="Caminho_207" data-name="Caminho 207" d="M180.269,246.237l-.613.4a6.539,6.539,0,0,0,.668.858l.537-.5A5.8,5.8,0,0,1,180.269,246.237Z" transform="translate(-179.656 -246.237)" fill="#ddd"/>
    </g>
  </g>
  <g id="Grupo_11" data-name="Grupo 11" transform="translate(6.993 7.813)">
    <g id="Grupo_10" data-name="Grupo 10">
      <path id="Caminho_208" data-name="Caminho 208" d="M145.605,161.922l-.716.163a14.3,14.3,0,0,0,1.4,3.849l.638-.363A13.578,13.578,0,0,1,145.605,161.922Z" transform="translate(-144.89 -161.922)" fill="#ddd"/>
    </g>
  </g>
  <g id="Grupo_13" data-name="Grupo 13" transform="translate(19.438 14.741)">
    <g id="Grupo_12" data-name="Grupo 12">
      <path id="Caminho_209" data-name="Caminho 209" d="M404.748,306.826v-.734h-.62v-.62h-.734v.62h-.62v.734h.62v.619h.734v-.62Z" transform="translate(-402.774 -305.473)" fill="#ddd"/>
    </g>
  </g>
  <g id="Grupo_15" data-name="Grupo 15" transform="translate(3.669 18.652)">
    <g id="Grupo_14" data-name="Grupo 14">
      <path id="Caminho_210" data-name="Caminho 210" d="M77.79,387.759v-.734h-.52v-.52h-.734v.52h-.52v.734h.52v.52h.734v-.52Z" transform="translate(-76.016 -386.506)" fill="#ddd"/>
    </g>
  </g>
  <g id="Grupo_17" data-name="Grupo 17" transform="translate(2.357 13.906)">
    <g id="Grupo_16" data-name="Grupo 16">
      <rect id="Retângulo_32" data-name="Retângulo 32" width="0.692" height="0.734" fill="#ddd"/>
    </g>
  </g>
  <g id="Grupo_19" data-name="Grupo 19" transform="translate(6.807 16.077)">
    <g id="Grupo_18" data-name="Grupo 18">
      <rect id="Retângulo_33" data-name="Retângulo 33" width="0.692" height="0.734" fill="#ddd"/>
    </g>
  </g>
  <g id="Grupo_21" data-name="Grupo 21" transform="translate(17.965 18.285)">
    <g id="Grupo_20" data-name="Grupo 20">
      <rect id="Retângulo_34" data-name="Retângulo 34" width="0.692" height="0.734" fill="#ddd"/>
    </g>
  </g>
</svg>
