<svg id="code" xmlns="http://www.w3.org/2000/svg" width="32.27" height="28.625" viewBox="0 0 32.27 28.625">
  <path id="Caminho_177" data-name="Caminho 177" d="M119,187.963a.533.533,0,0,1-.347-.128l-3.466-2.951a.536.536,0,0,1,0-.816l3.466-2.951a.536.536,0,1,1,.694.815l-2.987,2.544,2.987,2.544a.536.536,0,0,1-.348.944Zm0,0" transform="translate(-106.255 -167.14)" fill="#ddd"/>
  <path id="Caminho_178" data-name="Caminho 178" d="M250.243,187.963a.536.536,0,0,1-.348-.944l2.987-2.544-2.987-2.544a.535.535,0,1,1,.694-.815l3.466,2.951a.536.536,0,0,1,0,.816l-3.466,2.951A.533.533,0,0,1,250.243,187.963Zm0,0" transform="translate(-230.72 -167.139)" fill="#ddd"/>
  <path id="Caminho_179" data-name="Caminho 179" d="M189.49,164.353a.546.546,0,0,1-.111-.012.536.536,0,0,1-.414-.635l2.16-10.256a.536.536,0,1,1,1.048.221l-2.16,10.256A.536.536,0,0,1,189.49,164.353Zm0,0" transform="translate(-174.582 -141.315)" fill="#ddd"/>
  <path id="Caminho_180" data-name="Caminho 180" d="M28.693,28.625H3.577A3.591,3.591,0,0,1,0,25.029V3.6A3.591,3.591,0,0,1,3.577,0H28.693A3.591,3.591,0,0,1,32.27,3.6V25.029A3.591,3.591,0,0,1,28.693,28.625ZM3.577,1.071A2.521,2.521,0,0,0,1.066,3.6V25.029a2.521,2.521,0,0,0,2.512,2.525H28.693A2.521,2.521,0,0,0,31.2,25.029V3.6a2.521,2.521,0,0,0-2.512-2.525Zm0,0" fill="#ddd"/>
  <path id="Caminho_181" data-name="Caminho 181" d="M31.737,99.161H.533a.536.536,0,0,1,0-1.071h31.2a.536.536,0,0,1,0,1.071Zm0,0" transform="translate(0 -90.584)" fill="#ddd"/>
  <path id="Caminho_182" data-name="Caminho 182" d="M99.145,37.679a1.7,1.7,0,1,1,1.7-1.7A1.7,1.7,0,0,1,99.145,37.679Zm0-2.319a.624.624,0,1,0,.624.624A.625.625,0,0,0,99.145,35.36Zm0,0" transform="translate(-90.038 -31.665)" fill="#ddd"/>
  <path id="Caminho_183" data-name="Caminho 183" d="M31.082,37.465a1.7,1.7,0,1,1,1.7-1.7A1.7,1.7,0,0,1,31.082,37.465Zm0-2.319a.624.624,0,1,0,.624.624A.625.625,0,0,0,31.082,35.146Zm0,0" transform="translate(-27.138 -31.467)" fill="#ddd"/>
  <path id="Caminho_184" data-name="Caminho 184" d="M167.21,37.894a1.695,1.695,0,1,1,1.7-1.7A1.7,1.7,0,0,1,167.21,37.894Zm0-2.319a.624.624,0,1,0,.624.624A.624.624,0,0,0,167.21,35.575Zm0,0" transform="translate(-152.927 -31.864)" fill="#ddd"/>
</svg>
