<svg id="question" xmlns="http://www.w3.org/2000/svg" width="28.72" height="29.914" viewBox="0 0 28.72 29.914">
  <path id="Caminho_200" data-name="Caminho 200" d="M370.469,36.641a2.034,2.034,0,0,0-2.032,2.032.438.438,0,1,0,.876,0,1.156,1.156,0,1,1,1.155,1.156h-.278a.438.438,0,0,0-.438.438v1.5a.438.438,0,1,0,.876,0V40.7a2.032,2.032,0,0,0-.16-4.058Z" transform="translate(-347.508 -34.5)" fill="#ddd"/>
  <path id="Caminho_201" data-name="Caminho 201" d="M391.392,143.284a.438.438,0,0,0-.438.438v.128a.438.438,0,1,0,.876,0v-.128A.438.438,0,0,0,391.392,143.284Z" transform="translate(-368.709 -134.912)" fill="#ddd"/>
  <path id="Caminho_202" data-name="Caminho 202" d="M37.026,0h-7.69a1.916,1.916,0,0,0-1.913,1.913V5.381a7.972,7.972,0,0,0-6.55-3.43H18.914A6.582,6.582,0,0,0,13.3,5.11a3.759,3.759,0,0,0-2.639,3.712l.111,3.824a1.746,1.746,0,0,0-.554,1.277v.411a1.753,1.753,0,0,0,1.751,1.75h1.175a7.015,7.015,0,0,0,1.3,2.058l-2,2.776a.439.439,0,0,0-.069.146L10.35,28.84a.858.858,0,0,0,.831,1.074h16.3a1.056,1.056,0,0,0,1.053-1.133l-.166-2.271a4.269,4.269,0,0,0-.454-1.635.438.438,0,1,0-.781.4,3.4,3.4,0,0,1,.361,1.3l.166,2.271a.18.18,0,0,1-.179.193H25.46v-1.79a.438.438,0,1,0-.876,0v1.79H14.989l1.118-4.3a.032.032,0,0,1,.031-.024h1.936a2.325,2.325,0,0,0,1.089-.27,4.82,4.82,0,0,0,.86.077,4.7,4.7,0,0,0,3.26-1.3h0c.086.018.021,0,1.319.209a3.4,3.4,0,0,1,1.325.5A.438.438,0,1,0,26.4,23.2a4.274,4.274,0,0,0-1.664-.632,12.287,12.287,0,0,1-1.408-.241.84.84,0,0,1-.538-.775,1.443,1.443,0,0,0,.816-1.785A7.766,7.766,0,0,0,26.9,16.084h.825a1.752,1.752,0,0,0,1.75-1.75v-.411a1.748,1.748,0,0,0-.627-1.341V11.454a1.912,1.912,0,0,0,.487.063h1.38a.29.29,0,0,1,.289.289v1.244a.7.7,0,0,0,.482.674.726.726,0,0,0,.235.04.7.7,0,0,0,.558-.277l1.45-1.868a.262.262,0,0,1,.208-.1h3.088A1.916,1.916,0,0,0,38.94,9.6V1.913A1.916,1.916,0,0,0,37.026,0ZM11.1,14.334v-.411a.876.876,0,0,1,.875-.875h.711a7.193,7.193,0,0,0,.18,2.16h-.891A.875.875,0,0,1,11.1,14.334Zm8.941,9.31a2.326,2.326,0,0,0,.377-1.271v-.7h1.507a1.713,1.713,0,0,0,.53,1.117A3.841,3.841,0,0,1,20.038,23.644ZM22.206,20.8h-1.89a.778.778,0,0,0-.777.777v.8a1.465,1.465,0,0,1-1.464,1.464H16.138a.909.909,0,0,0-.879.68l-1.175,4.522H11.2L13.2,21.365l3.355-4.647a.577.577,0,0,1,.379-.234.586.586,0,0,1,.44.106l.021.016a.545.545,0,0,1,.226.432.539.539,0,0,1-.1.33L16.7,18.535a.707.707,0,0,0,.579,1.114h4.948a.574.574,0,0,1,.574.579A.589.589,0,0,1,22.206,20.8ZM28.6,14.334a.875.875,0,0,1-.874.874h-.541a6.586,6.586,0,0,0,.192-1.581c0-.2,0-.389-.012-.579h.361a.875.875,0,0,1,.874.875Zm-.874-2.162H27.3a11.7,11.7,0,0,0-.234-1.421,2.067,2.067,0,0,0-1.89-1.583,13.768,13.768,0,0,1-5.008-1.273,1,1,0,0,0-1.242.331.626.626,0,0,1-.5.254,1.758,1.758,0,0,1-1.061-.53,9.008,9.008,0,0,1-.866-.866,1.144,1.144,0,0,0-.856-.387h0a1.138,1.138,0,0,0-.851.383A7.466,7.466,0,0,0,13.7,8.7a.438.438,0,1,0,.784.391,6.589,6.589,0,0,1,.959-1.433.258.258,0,0,1,.2-.088.267.267,0,0,1,.2.091,9.873,9.873,0,0,0,.952.95,2.635,2.635,0,0,0,1.622.742,1.5,1.5,0,0,0,1.237-.64.118.118,0,0,1,.144-.027,14.655,14.655,0,0,0,5.329,1.354,1.185,1.185,0,0,1,1.086.906,11.111,11.111,0,0,1,.25,1.694c.024.316.036.647.036.985a5.66,5.66,0,0,1-.315,1.875,6.839,6.839,0,0,1-3.093,3.553,1.44,1.44,0,0,0-.86-.282H17.608l.631-.9a1.43,1.43,0,0,0-.33-1.975l-.021-.016a1.46,1.46,0,0,0-2.045.324l-.872,1.209A6.028,6.028,0,0,1,13.862,15.5a6.649,6.649,0,0,1-.279-2.86,11.062,11.062,0,0,1,.26-1.731.438.438,0,1,0-.853-.2,11.672,11.672,0,0,0-.245,1.463h-.774a1.751,1.751,0,0,0-.333.032L11.54,8.8A2.887,2.887,0,0,1,13.7,5.907a.438.438,0,0,0,.27-.207,5.7,5.7,0,0,1,4.942-2.873h1.959a7.107,7.107,0,0,1,7.1,7.1v2.262a1.76,1.76,0,0,0-.247-.018ZM38.064,9.6a1.038,1.038,0,0,1-1.037,1.037H33.938a1.133,1.133,0,0,0-.9.441l-1.157,1.49v-.765a1.167,1.167,0,0,0-1.166-1.166h-1.38a1.024,1.024,0,0,1-.487-.122V9.927a7.935,7.935,0,0,0-.55-2.91v-5.1A1.038,1.038,0,0,1,29.336.876h7.69a1.039,1.039,0,0,1,1.038,1.037Z" transform="translate(-10.22)" fill="#ddd"/>
  <path id="Caminho_203" data-name="Caminho 203" d="M133.044,218.65a.438.438,0,0,0,.438-.438v-.489a.438.438,0,1,0-.876,0v.489A.438.438,0,0,0,133.044,218.65Z" transform="translate(-125.455 -204.589)" fill="#ddd"/>
  <path id="Caminho_204" data-name="Caminho 204" d="M245.121,218.65a.438.438,0,0,0,.438-.438v-.489a.438.438,0,1,0-.876,0v.489A.438.438,0,0,0,245.121,218.65Z" transform="translate(-230.984 -204.589)" fill="#ddd"/>
  <path id="Caminho_205" data-name="Caminho 205" d="M172.587,259.283a1.6,1.6,0,0,1,1.751,0,.438.438,0,1,0,.441-.757,2.489,2.489,0,0,0-2.634,0,.438.438,0,0,0,.442.757Z" transform="translate(-162.48 -243.066)" fill="#ddd"/>
</svg>
