<svg id="Grupo_44" data-name="Grupo 44" xmlns="http://www.w3.org/2000/svg" width="27.56" height="33.279" viewBox="0 0 27.56 33.279">
  <g id="Grupo_43" data-name="Grupo 43" transform="translate(0 0)">
    <path id="Caminho_263" data-name="Caminho 263" d="M67.78,16.191A19.276,19.276,0,0,0,58.1.086a.65.65,0,0,0-.647,0A19.276,19.276,0,0,0,47.78,16.191,6.246,6.246,0,0,0,44,21.927v4.592a.65.65,0,0,0,.65.65H54.2a8.167,8.167,0,0,0,2.4,5.208l.725.715a.65.65,0,0,0,.912,0l.725-.715a8.167,8.167,0,0,0,2.4-5.208H63.37v3.355a.65.65,0,0,0,1.3,0V27.169h6.24a.65.65,0,0,0,.65-.65V21.927A6.246,6.246,0,0,0,67.78,16.191ZM57.78,1.4A17.94,17.94,0,0,1,62.952,6.11H52.608A17.94,17.94,0,0,1,57.78,1.4ZM45.3,25.869V21.927a4.946,4.946,0,0,1,2.47-4.28v7.572a1.941,1.941,0,0,0,.112.65Zm12.749,5.582-.269.265-.269-.265A6.858,6.858,0,0,1,55.5,27.169h4.55A6.858,6.858,0,0,1,58.049,31.452Zm8.441-6.232a.651.651,0,0,1-.65.65H49.72a.651.651,0,0,1-.65-.65V16.808A17.93,17.93,0,0,1,50.4,10.042h2.943a.65.65,0,0,0,0-1.3H50.988q.343-.682.742-1.332h12.1a17.979,17.979,0,0,1,2.66,9.4Zm3.77.65H67.678a1.941,1.941,0,0,0,.112-.65V17.647a4.946,4.946,0,0,1,2.47,4.28Z" transform="translate(-44 0)" fill="#ddd"/>
  </g>
</svg>
